<svg id="Layer_1" data-name="Layer 1" xmlns="http://www.w3.org/2000/svg" xmlns:xlink="http://www.w3.org/1999/xlink" viewBox="0 0 188 60"><defs><style>.cls-1{fill:url(#linear-gradient);}.cls-2{fill:#043;}</style><linearGradient id="linear-gradient" x1="40.26" y1="25.11" x2="40.26" y2="11.44" gradientUnits="userSpaceOnUse"><stop offset="0" stop-color="#82c341"/><stop offset="1" stop-color="#007054"/></linearGradient></defs><path class="cls-1" d="M50.54,19a20.27,20.27,0,0,0-3.09,6.14,15.26,15.26,0,0,0-7.19-7.53,15.32,15.32,0,0,0-7.19,7.52A20.08,20.08,0,0,0,30,19a21.4,21.4,0,0,1,10.27-7.53A21.37,21.37,0,0,1,50.54,19Z"/><path class="cls-2" d="M17.6,44a14.11,14.11,0,0,0,0-4c2.32,2.15,7.61,3.19,12.13,3.19,3.68,0,5.22-.8,5.22-2.38,0-2.11-2.33-2.35-7.84-2.8-6.05-.53-9.71-1.47-9.71-5.09s3.29-5.32,10-5.32a42.22,42.22,0,0,1,11,1.44,11.73,11.73,0,0,0,0,3.74,29.79,29.79,0,0,0-11.17-2.33c-3.81,0-5.41.74-5.41,2.35,0,1.92,2,2.42,7,2.81,6.35.48,10.52,1.32,10.52,5.18,0,3.55-3.36,5.25-10,5.25A35,35,0,0,1,17.6,44Z"/><path class="cls-2" d="M47.08,31.27c-.07,4.82,0,9.72.22,14.54H42.86c.19-6,.19-11.92,0-17.87a29.12,29.12,0,0,0,6.12,0q5.72,7.44,11.94,14.68c.08-4.9,0-9.81-.22-14.68a14.41,14.41,0,0,0,4.4,0c-.17,5.95-.15,11.92.07,17.87h-6C55.31,40.89,51.28,36,47.08,31.27Z"/><path class="cls-2" d="M69.38,27.89c3.33,0,6.47-.07,11.17-.07,5.83,0,9,1.32,9,4.48,0,2.83-2.6,3.94-5.79,4.06v.31c4,.09,6.92,1.39,6.92,4.43,0,4.32-6.1,4.85-10.52,4.85-5.17,0-7.39-.14-10.8-.14C69.67,41.32,69.67,32.38,69.38,27.89ZM80.57,35.8c3,0,4.52-.86,4.52-2.63s-1.63-2.55-4.52-2.55-5.41,0-6.8,0c0,1.58-.07,3.28,0,5.11C75.83,35.78,78.17,35.8,80.57,35.8Zm-6.75,7.25c2,.05,3.46.09,6.58.09,4.45,0,5.56-1.27,5.56-2.68s-1.11-2.33-5.39-2.33c-2.4,0-4.74,0-6.85,0C73.72,39.79,73.77,41.54,73.82,43.05Z"/><path class="cls-2" d="M108.2,48.72a1.61,1.61,0,0,0-1.08.37,1.21,1.21,0,0,0-.41.93,1.28,1.28,0,0,0,.41,1,1.52,1.52,0,0,0,1.08.38,1.46,1.46,0,0,0,1-.38,1.25,1.25,0,0,0,.42-1,1.18,1.18,0,0,0-.42-.93A1.55,1.55,0,0,0,108.2,48.72Z"/><path class="cls-2" d="M104.29,48.72a1.59,1.59,0,0,0-1.08.37,1.18,1.18,0,0,0-.42.93,1.26,1.26,0,0,0,.43,1,1.54,1.54,0,0,0,1.07.38,1.48,1.48,0,0,0,1-.38,1.28,1.28,0,0,0,.41-1,1.21,1.21,0,0,0-.41-.93A1.56,1.56,0,0,0,104.29,48.72Z"/><path class="cls-2" d="M144.68,32.44A8.43,8.43,0,0,0,139,30.71c-4.83,0-6.32,2.67-6.61,3.29l0,0,2,.88,0,0a5.17,5.17,0,0,1,4.48-2.07c4.6,0,5.22,2.95,5.22,4.53v5.1a1.54,1.54,0,0,1-1.64,1.45h-1v-7.1l0,0a8.27,8.27,0,0,0-3.32-.79c-3.26,0-5.93,1.34-5.93,5.24a4.36,4.36,0,0,0,1,2.67h-5.72V26.5l-2.56,1V41.7c0,1.27-.53,2.19-3,2.19h-3c-.37,0-.83,0-1.74-1.37l-5.92-10.24-.94-1.67a8,8,0,0,0-4.07,6.4,8.22,8.22,0,0,0,1.39,4l2,2.87H102c-2,0-3-1.1-3-3.35a6.69,6.69,0,0,1,1.31-3.74l-1.59-1A8.59,8.59,0,0,0,96.91,41c0,3,1.86,4.83,5.25,4.83h11.4l-3.5-5c-1.38-2.14-2.3-4.09-.48-6.53.94,1.6,5.51,9.33,5.77,9.71a3.74,3.74,0,0,0,3.54,1.83H122a8.49,8.49,0,0,0,1.71-.15,7.14,7.14,0,0,0,1.2-.34v.49H143.1a3.44,3.44,0,0,0,3.6-3.17v-5.3A6.14,6.14,0,0,0,144.68,32.44ZM139,38v5.92h-.85c-2.85,0-3.61-2-3.61-2.82C134.53,39.32,136,37.49,139,38Z"/><path class="cls-2" d="M152.87,30.75l4.95-1.81v-1.3l-2.4.88-.32-.72c-.13-.32,0-.59.41-.81a.64.64,0,0,1,.44-.08,1.18,1.18,0,0,1,.41.19l.33.19L157,26.2l-.15-.11a2.34,2.34,0,0,0-2.05-.19,2.06,2.06,0,0,0-1.19,1,1.58,1.58,0,0,0,.06,1.43L154,29l-.44.15Z"/><path class="cls-2" d="M161.11,41.78a2.25,2.25,0,0,1-2.39,2.11h-1.64V30.39l-2.56.93V43.89h-3.38l-.87,1.91h8.86c1.93,0,4.54-1.62,4.54-4.28v-15l-2.56.93Z"/><polygon class="cls-2" points="168.04 27.59 168.04 45.8 170.6 45.8 170.6 26.66 168.04 27.59"/></svg>